<svg xmlns="http://www.w3.org/2000/svg" xmlns:xlink="http://www.w3.org/1999/xlink" width="1200" height="1200" viewBox="0 0 1200 1200"><g transform="translate(600 600) scale(0.69 0.69) rotate(-90) translate(-600 -600)" style="fill:#000000"><svg fill="#000000" xmlns="http://www.w3.org/2000/svg" xmlns:xlink="http://www.w3.org/1999/xlink" version="1.1" preserveAspectRatio="none" x="0px" y="0px" viewBox="0 0 100 100"><defs><g id="a"><path fill="#000000" stroke="none" d=" M 88 37.7 Q 87.45 37.7 86.95 37.75 85.95 27.75 74.9 27.75 L 15.85 27.75 Q 3.75 27.75 3.75 39.8 L 3.75 59.85 Q 3.75 71.95 15.85 71.95 L 74.9 71.95 Q 85.75 71.95 86.95 62.15 87.35 62.2 88 62.2 L 90.95 62.2 Q 96.25 62.2 96.25 56.9 L 96.25 43 Q 96.25 37.7 90.95 37.7 L 88 37.7 M 87.6 42.45 Q 87.8 42.45 88 42.45 L 90.95 42.45 Q 91.5 42.45 91.5 43 L 91.5 56.9 Q 91.5 57.45 90.95 57.45 L 88 57.45 Q 87.8 57.45 87.6 57.45 87.35 57.25 87.35 56.9 L 87.35 43 Q 87.35 42.65 87.6 42.45 M 83.1 40.15 L 83.1 59.55 Q 83.05 68.65 73.9 68.65 L 16.9 68.65 Q 7.7 68.65 7.7 59.5 L 7.7 40.15 Q 7.7 30.95 16.9 30.95 L 73.9 30.95 Q 83.1 30.95 83.1 40.15 M 37.2 34.45 L 25.35 34.45 25.35 65.15 37.2 65.15 37.2 34.45 M 16.9 34.45 Q 11.2 34.45 11.2 40.15 L 11.2 59.5 Q 11.2 65.15 16.9 65.15 L 22.85 65.15 22.85 34.45 16.9 34.45 Z"/></g></defs><g transform="matrix( 1, 0, 0, 1, 0,0) "><use xlink:href="#a"/></g></svg></g></svg>