<svg xmlns="http://www.w3.org/2000/svg" xmlns:xlink="http://www.w3.org/1999/xlink" width="1200" height="1200" viewBox="0 0 1200 1200"><g transform="translate(600 600) scale(0.69 0.69) rotate(-90) translate(-600 -600)" style="fill:#000000"><svg fill="#000000" xmlns="http://www.w3.org/2000/svg" xmlns:xlink="http://www.w3.org/1999/xlink" viewBox="0 0 100 100" version="1.1" xml:space="preserve" style="" x="0px" y="0px" fill-rule="evenodd" clip-rule="evenodd" stroke-linejoin="round" stroke-miterlimit="1.41421"><path d="M74.9,27.75C82.267,27.75 86.283,31.083 86.95,37.75C87.283,37.717 87.633,37.7 88,37.7L90.95,37.7C94.483,37.7 96.25,39.467 96.25,43L96.25,56.9C96.25,60.433 94.483,62.2 90.95,62.2L88,62.2C87.567,62.2 87.217,62.183 86.95,62.15C86.15,68.683 82.133,71.95 74.9,71.95L15.85,71.95C7.783,71.95 3.75,67.917 3.75,59.85L3.75,39.8C3.75,31.767 7.783,27.75 15.85,27.75L74.9,27.75ZM73.9,68.65C80,68.65 83.067,65.617 83.1,59.55L83.1,40.15C83.1,34.017 80.033,30.95 73.9,30.95L16.9,30.95C10.767,30.95 7.7,34.017 7.7,40.15L7.7,59.5C7.7,65.6 10.767,68.65 16.9,68.65L73.9,68.65ZM51.95,34.826L51.95,65.15L40.334,65.15L40.304,65.19C40.202,65.235 40.108,65.271 40.021,65.301C39.95,65.33 39.885,65.348 39.826,65.356C39.767,65.363 39.738,65.352 39.738,65.323C39.738,65.315 39.765,65.257 39.82,65.15L40.334,65.15C42.218,62.595 43.904,60.316 45.392,58.314C46.029,57.462 46.651,56.62 47.257,55.79C47.862,54.96 48.405,54.222 48.885,53.575C49.365,52.928 49.751,52.403 50.042,51.999C50.333,51.595 50.479,51.386 50.479,51.371C50.479,51.342 50.526,51.257 50.621,51.117C50.715,50.978 50.821,50.827 50.939,50.666C51.073,50.475 51.226,50.254 51.4,50.004L45.297,47.227L51.95,34.826L51.95,34.673L52.049,34.642L51.95,34.826ZM39.7,34.45L51.95,34.45L51.95,34.673C51.85,34.703 51.761,34.73 51.683,34.752C51.596,34.782 51.516,34.804 51.441,34.818C51.366,34.833 51.329,34.826 51.329,34.796C51.329,34.782 51.173,34.976 50.862,35.38C50.552,35.784 50.141,36.317 49.629,36.978C49.118,37.64 48.535,38.396 47.882,39.249C47.229,40.101 46.56,40.968 45.876,41.849C44.278,43.936 42.46,46.309 40.422,48.968L46.773,52.01C45.458,54.493 44.286,56.705 43.255,58.644C42.814,59.482 42.384,60.297 41.963,61.091C41.542,61.884 41.166,62.593 40.835,63.218C40.505,63.842 40.239,64.346 40.039,64.728C39.943,64.91 39.87,65.051 39.82,65.15L39.7,65.15L39.7,34.45ZM37.2,34.45L37.2,65.15L25.35,65.15L25.35,34.45L37.2,34.45ZM22.85,34.45L22.85,65.15L16.9,65.15C13.1,65.15 11.2,63.267 11.2,59.5L11.2,40.15C11.2,36.35 13.1,34.45 16.9,34.45L22.85,34.45ZM66.3,34.45L66.3,65.15L54.45,65.15L54.45,34.45L66.3,34.45ZM73.9,34.45C77.7,34.45 79.6,36.35 79.6,40.15L79.6,59.5C79.6,63.267 77.7,65.15 73.9,65.15L68.8,65.15L68.8,34.45L73.9,34.45ZM90.95,57.45C91.317,57.45 91.5,57.267 91.5,56.9L91.5,43C91.5,42.633 91.317,42.45 90.95,42.45L87.6,42.45C87.433,42.583 87.35,42.767 87.35,43L87.35,56.9C87.35,57.133 87.433,57.317 87.6,57.45L90.95,57.45Z" style="" fill="black"/></svg></g></svg>